<?xml version="1.0" ?><!DOCTYPE svg  PUBLIC '-//W3C//DTD SVG 1.1//EN'  'http://www.w3.org/Graphics/SVG/1.1/DTD/svg11.dtd'><svg enable-background="new 0 0 841.89 595.28" height="595.28px" id="Layer_1" version="1.1" viewBox="0 0 841.89 595.28" width="841.89px" xml:space="preserve" xmlns="http://www.w3.org/2000/svg" xmlns:xlink="http://www.w3.org/1999/xlink"><path d="M724.41,297.023c0,164.561-133.41,297.962-297.97,297.962c-164.561,0-297.962-133.401-297.962-297.962  c0-164.569,133.401-297.97,297.962-297.97C591-0.946,724.41,132.455,724.41,297.023z" fill="#E62A41"/><path d="M723.063,269.091c-0.292-0.131-0.587-0.254-0.872-0.371c-0.304-0.134-0.604-0.257-0.907-0.38  c-0.285-0.127-0.58-0.248-0.865-0.369c-0.294-0.127-0.58-0.248-0.872-0.369c-0.347-0.151-0.688-0.293-1.035-0.43  c-0.248-0.113-0.498-0.216-0.747-0.316c-0.311-0.142-0.624-0.269-0.927-0.398c-0.32-0.138-0.632-0.266-0.944-0.398  c-0.295-0.127-0.589-0.251-0.881-0.373c-0.294-0.127-0.598-0.255-0.892-0.374c-0.312-0.143-0.632-0.272-0.943-0.4  c-0.294-0.132-0.589-0.25-0.882-0.371c-0.295-0.135-0.598-0.257-0.893-0.378c-0.294-0.125-0.577-0.248-0.862-0.367  c-0.322-0.14-0.642-0.274-0.963-0.404c-0.273-0.119-0.543-0.237-0.819-0.347c-0.319-0.143-0.65-0.281-0.972-0.408  c-0.319-0.145-0.632-0.272-0.952-0.401c-0.251-0.113-0.508-0.218-0.765-0.322c-0.321-0.147-0.65-0.285-0.971-0.415  c-0.303-0.131-0.598-0.252-0.893-0.373c-0.285-0.127-0.57-0.25-0.865-0.365c-0.31-0.143-0.621-0.272-0.942-0.4  c-0.312-0.141-0.633-0.272-0.944-0.402c-0.268-0.116-0.543-0.226-0.811-0.338c-0.312-0.138-0.633-0.273-0.945-0.402  c-0.284-0.123-0.57-0.244-0.854-0.36c-0.32-0.138-0.633-0.276-0.953-0.404c-0.312-0.14-0.624-0.264-0.937-0.393  c-0.276-0.125-0.561-0.235-0.836-0.352c-0.295-0.129-0.58-0.248-0.866-0.371c-0.312-0.136-0.622-0.266-0.933-0.395  c-0.322-0.136-0.633-0.272-0.954-0.396c-0.277-0.12-0.543-0.237-0.811-0.346c-0.304-0.134-0.605-0.26-0.91-0.385  c-0.328-0.147-0.659-0.284-0.988-0.42c-0.277-0.119-0.551-0.235-0.828-0.347c-0.303-0.132-0.605-0.262-0.909-0.387  c-0.302-0.127-0.604-0.259-0.897-0.377c-0.313-0.135-0.615-0.264-0.919-0.387c-0.312-0.136-0.606-0.264-0.909-0.385  c-0.293-0.129-0.578-0.248-0.873-0.371c-0.311-0.132-0.615-0.261-0.915-0.387c-0.304-0.127-0.598-0.255-0.893-0.374  c-0.303-0.129-0.598-0.259-0.9-0.377c-0.304-0.134-0.605-0.264-0.908-0.382c-0.284-0.132-0.57-0.25-0.854-0.367  c-0.312-0.138-0.624-0.27-0.944-0.397c-0.304-0.136-0.605-0.261-0.919-0.387c-0.303-0.136-0.605-0.263-0.908-0.387  c-0.277-0.121-0.552-0.232-0.828-0.347c-0.321-0.138-0.643-0.276-0.962-0.406c-0.304-0.134-0.596-0.256-0.899-0.377  c-0.276-0.125-0.562-0.24-0.839-0.358c-0.339-0.145-0.677-0.288-1.016-0.426c-0.239-0.105-0.489-0.21-0.729-0.312  c-0.356-0.152-0.705-0.299-1.053-0.439c-0.292-0.132-0.586-0.25-0.881-0.371c-0.268-0.121-0.535-0.23-0.802-0.338  c-0.32-0.143-0.632-0.277-0.953-0.411c-0.312-0.131-0.615-0.261-0.926-0.386c-0.275-0.125-0.562-0.242-0.838-0.355  c-0.329-0.143-0.659-0.286-0.988-0.42c-0.295-0.125-0.58-0.244-0.866-0.359c-0.273-0.126-0.551-0.236-0.825-0.352  c-0.342-0.147-0.68-0.29-1.009-0.428c-0.283-0.123-0.561-0.242-0.846-0.356c-0.303-0.129-0.597-0.255-0.892-0.373  c-0.312-0.139-0.613-0.264-0.916-0.389c-0.312-0.138-0.624-0.27-0.937-0.396c-0.275-0.121-0.551-0.231-0.818-0.349  c-0.33-0.141-0.643-0.275-0.962-0.405c-0.312-0.139-0.624-0.268-0.938-0.391c-0.258-0.112-0.515-0.224-0.774-0.325  c-0.31-0.143-0.621-0.277-0.934-0.401c-0.338-0.147-0.667-0.284-0.997-0.42c-0.269-0.114-0.526-0.226-0.796-0.338  c-0.338-0.145-0.668-0.283-0.996-0.421c-0.267-0.117-0.534-0.224-0.792-0.33c-0.328-0.147-0.65-0.281-0.971-0.413  c-0.302-0.136-0.605-0.259-0.899-0.38c-0.313-0.134-0.615-0.257-0.919-0.385c-0.276-0.119-0.542-0.235-0.819-0.347  c-0.339-0.149-0.668-0.29-1.007-0.422c-0.267-0.121-0.542-0.237-0.809-0.347c-0.305-0.129-0.59-0.255-0.885-0.374  c-0.319-0.14-0.642-0.277-0.961-0.406c-0.284-0.125-0.569-0.244-0.855-0.363c-0.32-0.141-0.633-0.274-0.953-0.404  c-0.295-0.127-0.587-0.25-0.881-0.369c-0.294-0.129-0.589-0.255-0.883-0.373c-0.3-0.137-0.604-0.259-0.907-0.385  c-0.321-0.138-0.633-0.27-0.953-0.402c-0.276-0.123-0.562-0.235-0.837-0.351c-0.295-0.128-0.589-0.253-0.893-0.378  c-0.302-0.132-0.606-0.259-0.907-0.382c-0.303-0.138-0.615-0.264-0.918-0.386c-0.303-0.141-0.614-0.263-0.918-0.389  c-0.286-0.125-0.56-0.239-0.846-0.355c-0.321-0.143-0.633-0.277-0.954-0.406c-0.294-0.132-0.597-0.255-0.89-0.374  c-0.302-0.134-0.605-0.263-0.909-0.382c-0.294-0.13-0.58-0.25-0.862-0.365c-0.304-0.136-0.607-0.264-0.901-0.384  c-0.32-0.139-0.624-0.266-0.936-0.398c-0.283-0.118-0.56-0.239-0.837-0.352c-0.303-0.131-0.606-0.263-0.909-0.382  c-0.321-0.143-0.642-0.276-0.96-0.409c-0.295-0.132-0.59-0.25-0.874-0.372c-0.313-0.133-0.615-0.261-0.929-0.388  c-0.281-0.123-0.56-0.24-0.845-0.356c-0.321-0.14-0.633-0.27-0.944-0.399c-0.304-0.129-0.596-0.255-0.89-0.374  c-0.294-0.129-0.598-0.255-0.892-0.377c-0.283-0.128-0.57-0.246-0.854-0.363c-0.331-0.147-0.659-0.279-0.979-0.415  c-0.286-0.124-0.571-0.24-0.855-0.356c-0.303-0.136-0.606-0.261-0.908-0.387c-0.286-0.125-0.569-0.246-0.855-0.365  c-0.329-0.138-0.642-0.276-0.962-0.406c-0.304-0.134-0.605-0.257-0.9-0.377c-0.285-0.125-0.561-0.24-0.837-0.358  c-0.339-0.145-0.677-0.288-1.016-0.426c-0.268-0.114-0.535-0.228-0.801-0.333c-0.303-0.134-0.607-0.264-0.902-0.382  c-0.311-0.138-0.623-0.268-0.935-0.397c-0.283-0.125-0.569-0.245-0.854-0.36c-0.32-0.143-0.649-0.281-0.972-0.415  c-0.294-0.124-0.568-0.24-0.854-0.356c-0.321-0.136-0.633-0.272-0.945-0.395c-0.267-0.121-0.542-0.233-0.81-0.343  c-0.349-0.158-0.687-0.299-1.033-0.438c-0.268-0.116-0.527-0.222-0.784-0.329c-0.303-0.135-0.597-0.26-0.892-0.385  c-0.329-0.141-0.65-0.274-0.971-0.405c-0.283-0.129-0.569-0.25-0.863-0.364c-0.312-0.138-0.624-0.272-0.936-0.402  c-0.294-0.13-0.587-0.249-0.882-0.37c-0.294-0.125-0.578-0.248-0.865-0.367c-0.338-0.145-0.668-0.283-0.997-0.417  c-0.277-0.119-0.551-0.237-0.828-0.347c-0.285-0.129-0.569-0.25-0.854-0.365c-0.339-0.147-0.677-0.29-1.005-0.424  c-0.277-0.121-0.556-0.234-0.822-0.347c-0.311-0.134-0.622-0.266-0.934-0.393c-0.286-0.127-0.57-0.248-0.856-0.364  c-0.313-0.137-0.622-0.268-0.935-0.396c-0.295-0.129-0.588-0.25-0.883-0.369c-0.32-0.145-0.642-0.276-0.962-0.411  c-0.295-0.125-0.577-0.24-0.863-0.36c-0.285-0.121-0.562-0.241-0.837-0.354c-0.339-0.149-0.667-0.288-1.009-0.426  c-0.274-0.121-0.543-0.233-0.818-0.343c-0.303-0.134-0.596-0.264-0.899-0.382c-0.321-0.145-0.633-0.272-0.943-0.402  c-0.305-0.134-0.607-0.257-0.902-0.38c-0.265-0.119-0.533-0.23-0.801-0.343c-0.348-0.146-0.677-0.29-1.015-0.427  c-0.286-0.125-0.561-0.242-0.847-0.355c-0.311-0.139-0.614-0.268-0.926-0.394c-0.295-0.129-0.587-0.252-0.882-0.369  c-0.312-0.138-0.615-0.266-0.918-0.393c-0.303-0.127-0.597-0.253-0.89-0.374c-0.312-0.132-0.615-0.263-0.918-0.387  c-0.294-0.129-0.58-0.246-0.863-0.365c-0.303-0.136-0.607-0.264-0.909-0.384c-0.312-0.139-0.625-0.266-0.927-0.391  c-0.286-0.125-0.57-0.241-0.846-0.358c-0.32-0.141-0.633-0.27-0.953-0.4c-0.312-0.138-0.616-0.268-0.928-0.391  c-0.274-0.125-0.561-0.242-0.836-0.355c-0.313-0.136-0.616-0.264-0.929-0.389c-0.292-0.134-0.586-0.253-0.88-0.376  c-0.304-0.132-0.598-0.257-0.893-0.377c-0.32-0.141-0.65-0.277-0.971-0.409c-0.267-0.117-0.524-0.225-0.782-0.33  c-0.329-0.147-0.659-0.286-0.988-0.42c-0.294-0.129-0.589-0.252-0.884-0.369c-0.302-0.134-0.605-0.262-0.909-0.384  c-0.309-0.141-0.631-0.27-0.941-0.4c-0.26-0.113-0.519-0.224-0.775-0.329c-0.33-0.143-0.66-0.281-0.988-0.413  c-0.286-0.132-0.571-0.251-0.866-0.368c-0.302-0.134-0.604-0.261-0.907-0.386c-0.312-0.134-0.624-0.264-0.927-0.393  c-0.303-0.128-0.598-0.252-0.9-0.374c-0.267-0.119-0.534-0.233-0.802-0.343c-0.338-0.151-0.677-0.294-1.023-0.43  c-0.278-0.127-0.553-0.238-0.829-0.354c-0.177-0.077-0.355-0.161-0.533-0.235c-7.822-3.765-15.019-3.965-19.037-4.446  c-42.783-3.09-106.963-3.09-106.963-3.09h-0.132c0,0-64.172,0-106.956,3.09c-5.978,0.712-19.01,0.775-30.633,12.952  c-9.166,9.283-12.151,30.349-12.151,30.349s-3.064,24.736-3.064,49.482v23.196c0,24.743,3.064,49.481,3.064,49.481  s2.985,21.067,12.151,30.35c4.506,4.724,9.567,7.544,14.465,9.316c0.231,0.108,0.473,0.191,0.704,0.287  c0.268,0.123,0.526,0.221,0.793,0.336c0.32,0.144,0.633,0.271,0.953,0.405c0.32,0.147,0.633,0.268,0.953,0.401  c0.269,0.122,0.534,0.227,0.802,0.339c0.32,0.147,0.633,0.267,0.944,0.399c0.322,0.147,0.642,0.272,0.962,0.406  c0.278,0.125,0.543,0.226,0.82,0.344c0.303,0.138,0.596,0.252,0.889,0.383c0.312,0.137,0.624,0.263,0.936,0.393  c0.312,0.139,0.624,0.267,0.944,0.395c0.268,0.125,0.533,0.229,0.802,0.343c0.32,0.143,0.642,0.271,0.971,0.411  c0.294,0.133,0.589,0.243,0.881,0.373c0.312,0.143,0.633,0.264,0.944,0.397c0.278,0.123,0.554,0.227,0.82,0.347  c0.33,0.141,0.651,0.272,0.971,0.409c0.276,0.125,0.562,0.232,0.839,0.351c0.301,0.137,0.596,0.255,0.898,0.381  c0.312,0.144,0.624,0.265,0.945,0.401c0.294,0.133,0.58,0.244,0.872,0.369c0.304,0.136,0.607,0.253,0.909,0.383  c0.304,0.139,0.607,0.254,0.91,0.382c0.301,0.139,0.605,0.26,0.917,0.386c0.286,0.133,0.571,0.242,0.856,0.363  c0.292,0.135,0.587,0.248,0.88,0.374c0.331,0.151,0.66,0.28,0.989,0.418c0.277,0.129,0.562,0.238,0.846,0.357  c0.294,0.129,0.58,0.245,0.875,0.364c0.32,0.147,0.641,0.277,0.962,0.412c0.274,0.123,0.542,0.225,0.818,0.342  c0.331,0.151,0.66,0.277,0.98,0.419c0.294,0.132,0.586,0.244,0.88,0.37c0.286,0.127,0.571,0.24,0.857,0.359  c0.301,0.139,0.604,0.26,0.907,0.386c0.312,0.142,0.616,0.261,0.918,0.39c0.312,0.138,0.615,0.257,0.918,0.387  c0.292,0.134,0.586,0.25,0.88,0.375c0.312,0.137,0.624,0.262,0.936,0.392c0.294,0.134,0.586,0.245,0.88,0.369  c0.286,0.129,0.571,0.242,0.866,0.364c0.292,0.137,0.587,0.25,0.889,0.381c0.322,0.142,0.633,0.266,0.954,0.405  c0.286,0.124,0.572,0.235,0.847,0.356c0.329,0.145,0.649,0.276,0.979,0.413c0.269,0.121,0.536,0.224,0.811,0.338  c0.33,0.151,0.659,0.281,0.989,0.424c0.268,0.12,0.535,0.223,0.801,0.335c0.321,0.146,0.642,0.269,0.962,0.409  c0.294,0.133,0.589,0.244,0.883,0.375c0.295,0.127,0.578,0.241,0.872,0.364c0.33,0.152,0.659,0.28,0.989,0.421  c0.286,0.133,0.571,0.238,0.866,0.359c0.274,0.128,0.56,0.239,0.846,0.359c0.303,0.135,0.597,0.248,0.889,0.38  c0.32,0.146,0.642,0.271,0.962,0.409c0.304,0.133,0.598,0.25,0.9,0.373c0.286,0.13,0.56,0.236,0.846,0.355  c0.321,0.149,0.651,0.277,0.971,0.416c0.304,0.138,0.607,0.252,0.909,0.384c0.275,0.123,0.552,0.228,0.83,0.343  c0.302,0.137,0.606,0.257,0.907,0.387c0.303,0.139,0.606,0.254,0.91,0.383c0.302,0.139,0.606,0.259,0.909,0.386  c0.312,0.146,0.624,0.264,0.944,0.398c0.266,0.125,0.542,0.226,0.811,0.344c0.32,0.142,0.63,0.268,0.942,0.399  c0.304,0.137,0.606,0.256,0.91,0.383c0.303,0.139,0.615,0.26,0.918,0.387c0.284,0.132,0.56,0.233,0.836,0.351  c0.321,0.149,0.633,0.273,0.954,0.408c0.294,0.129,0.578,0.238,0.863,0.365c0.312,0.142,0.632,0.263,0.944,0.396  c0.286,0.133,0.58,0.246,0.864,0.364c0.294,0.135,0.58,0.246,0.875,0.369c0.32,0.149,0.641,0.272,0.962,0.41  c0.292,0.135,0.586,0.244,0.889,0.377c0.286,0.127,0.571,0.234,0.846,0.354c0.33,0.149,0.65,0.275,0.98,0.414  c0.285,0.133,0.58,0.241,0.865,0.364c0.303,0.139,0.606,0.254,0.898,0.378c0.293,0.137,0.588,0.246,0.874,0.372  c0.33,0.146,0.65,0.269,0.971,0.41c0.266,0.119,0.543,0.227,0.82,0.342c0.312,0.141,0.633,0.269,0.953,0.405  c0.286,0.129,0.569,0.24,0.864,0.364c0.312,0.139,0.624,0.265,0.936,0.393c0.276,0.13,0.551,0.235,0.829,0.352  c0.329,0.152,0.649,0.279,0.979,0.416c0.277,0.128,0.563,0.235,0.838,0.354c0.32,0.142,0.632,0.27,0.944,0.401  c0.294,0.133,0.588,0.245,0.882,0.368c0.301,0.141,0.596,0.255,0.891,0.38c0.312,0.143,0.623,0.262,0.935,0.394  c0.277,0.128,0.561,0.234,0.837,0.351c0.321,0.146,0.642,0.275,0.962,0.409c0.294,0.139,0.598,0.251,0.89,0.379  c0.303,0.138,0.615,0.254,0.917,0.381c0.278,0.133,0.563,0.237,0.846,0.358c0.312,0.143,0.625,0.266,0.937,0.397  c0.303,0.137,0.598,0.252,0.9,0.383c0.294,0.128,0.587,0.244,0.873,0.364c0.312,0.143,0.615,0.264,0.926,0.391  c0.303,0.139,0.598,0.255,0.899,0.38c0.303,0.139,0.606,0.254,0.909,0.383c0.286,0.13,0.562,0.239,0.846,0.363  c0.312,0.136,0.615,0.261,0.926,0.391c0.312,0.136,0.616,0.264,0.928,0.392c0.303,0.138,0.604,0.254,0.898,0.377  c0.286,0.132,0.562,0.238,0.848,0.357c0.311,0.144,0.631,0.266,0.942,0.4c0.312,0.143,0.624,0.264,0.936,0.397  c0.286,0.128,0.571,0.235,0.855,0.355c0.294,0.132,0.58,0.247,0.875,0.369c0.293,0.134,0.586,0.251,0.889,0.378  c0.32,0.149,0.632,0.273,0.953,0.406c0.303,0.139,0.605,0.253,0.9,0.38c0.285,0.128,0.569,0.239,0.854,0.36  c0.312,0.142,0.624,0.262,0.936,0.396c0.303,0.139,0.606,0.255,0.91,0.383c0.292,0.135,0.577,0.245,0.872,0.364  c0.303,0.141,0.598,0.256,0.898,0.384c0.304,0.139,0.607,0.258,0.909,0.39c0.312,0.137,0.624,0.257,0.928,0.386  c0.303,0.137,0.605,0.255,0.907,0.382c0.285,0.131,0.562,0.238,0.848,0.356c0.304,0.135,0.595,0.251,0.89,0.38  c0.312,0.139,0.614,0.263,0.927,0.392c0.303,0.138,0.615,0.26,0.918,0.389c0.292,0.132,0.595,0.247,0.898,0.378  c0.312,0.139,0.615,0.26,0.927,0.392c0.285,0.125,0.559,0.232,0.837,0.352c0.303,0.136,0.605,0.255,0.899,0.383  c0.313,0.139,0.613,0.259,0.926,0.39c0.294,0.132,0.598,0.253,0.892,0.378c0.303,0.132,0.597,0.248,0.89,0.378  c0.303,0.134,0.606,0.255,0.909,0.383c0.321,0.142,0.633,0.263,0.945,0.396c0.276,0.131,0.56,0.236,0.837,0.352  c0.33,0.151,0.649,0.279,0.979,0.42c0.277,0.118,0.543,0.222,0.819,0.338c0.295,0.133,0.589,0.253,0.892,0.378  c0.312,0.144,0.623,0.268,0.942,0.4c0.303,0.14,0.606,0.259,0.908,0.389c0.287,0.126,0.571,0.235,0.847,0.354  c0.33,0.147,0.65,0.278,0.979,0.417c0.277,0.122,0.545,0.226,0.82,0.342c0.319,0.141,0.633,0.273,0.953,0.403  c0.312,0.144,0.614,0.261,0.928,0.388c0.267,0.128,0.533,0.229,0.8,0.338c0.322,0.149,0.642,0.273,0.964,0.413  c0.285,0.127,0.579,0.244,0.862,0.365c0.321,0.145,0.642,0.27,0.962,0.408c0.286,0.125,0.562,0.233,0.849,0.353  c0.291,0.133,0.586,0.249,0.88,0.373c0.321,0.149,0.633,0.271,0.954,0.405c0.303,0.139,0.607,0.253,0.897,0.381  c0.286,0.127,0.571,0.235,0.849,0.355c0.312,0.141,0.613,0.263,0.925,0.395c0.321,0.144,0.633,0.27,0.954,0.401  c0.285,0.131,0.57,0.241,0.865,0.361c0.283,0.135,0.578,0.245,0.873,0.369c0.311,0.144,0.632,0.266,0.943,0.402  c0.277,0.123,0.551,0.23,0.828,0.347c0.329,0.149,0.659,0.286,0.998,0.422c0.294,0.135,0.588,0.251,0.891,0.375  c0.257,0.117,0.517,0.214,0.773,0.323c0.34,0.154,0.671,0.286,1,0.431c0.303,0.133,0.595,0.248,0.898,0.379  c0.285,0.128,0.571,0.234,0.846,0.354c0.312,0.142,0.623,0.265,0.936,0.396c0.329,0.152,0.659,0.281,0.997,0.421  c0.251,0.116,0.51,0.212,0.767,0.32c0.312,0.143,0.624,0.266,0.937,0.401c0.312,0.137,0.614,0.257,0.926,0.387  c0.283,0.129,0.562,0.235,0.846,0.355c0.312,0.144,0.616,0.265,0.927,0.396c0.304,0.138,0.604,0.255,0.908,0.384  c0.312,0.144,0.624,0.262,0.936,0.391c0.277,0.13,0.562,0.235,0.838,0.359c0.319,0.14,0.641,0.269,0.971,0.408  c0.259,0.114,0.523,0.218,0.793,0.329c0.311,0.143,0.624,0.269,0.935,0.399c0.33,0.153,0.66,0.281,0.998,0.425  c0.259,0.116,0.516,0.213,0.775,0.324c0.312,0.144,0.624,0.267,0.937,0.398c0.311,0.14,0.623,0.261,0.924,0.391  c0.303,0.139,0.606,0.255,0.909,0.382c0.295,0.135,0.589,0.247,0.881,0.369c0.294,0.136,0.598,0.251,0.892,0.38  c0.305,0.139,0.615,0.258,0.919,0.389c0.303,0.137,0.604,0.254,0.907,0.383c0.312,0.137,0.615,0.26,0.918,0.387  c0.277,0.121,0.543,0.229,0.819,0.342c0.304,0.139,0.605,0.261,0.91,0.388c0.319,0.149,0.642,0.271,0.971,0.41  c0.282,0.134,0.577,0.245,0.871,0.371c0.287,0.128,0.57,0.239,0.854,0.361c0.321,0.145,0.633,0.271,0.954,0.403  c0.303,0.139,0.605,0.255,0.9,0.379c0.294,0.131,0.578,0.241,0.862,0.365c0.313,0.14,0.616,0.258,0.919,0.387  c0.312,0.143,0.624,0.265,0.936,0.395c0.267,0.122,0.543,0.229,0.819,0.347c0.321,0.146,0.643,0.275,0.971,0.412  c0.293,0.135,0.588,0.246,0.892,0.374c0.284,0.132,0.57,0.237,0.845,0.357c0.321,0.147,0.632,0.271,0.953,0.407  c0.303,0.131,0.597,0.253,0.9,0.378c0.285,0.127,0.561,0.234,0.846,0.355c0.33,0.152,0.658,0.282,0.997,0.421  c0.277,0.126,0.555,0.229,0.829,0.349c0.285,0.13,0.579,0.245,0.874,0.37c0.329,0.147,0.65,0.275,0.979,0.415  c0.276,0.128,0.56,0.236,0.837,0.356c0.303,0.132,0.606,0.252,0.909,0.382c0.304,0.139,0.612,0.26,0.926,0.391  c0.319,0.146,0.632,0.27,0.952,0.402c0.26,0.117,0.517,0.213,0.776,0.321c0.32,0.147,0.641,0.275,0.961,0.415  c0.304,0.131,0.599,0.248,0.901,0.378c0.292,0.132,0.586,0.245,0.881,0.373c0.321,0.144,0.633,0.269,0.943,0.399  c0.295,0.132,0.578,0.242,0.864,0.363c0.294,0.135,0.58,0.243,0.874,0.364c0.312,0.147,0.633,0.272,0.943,0.407  c0.303,0.131,0.598,0.248,0.891,0.372c0.304,0.14,0.607,0.255,0.909,0.383c0.293,0.134,0.579,0.246,0.864,0.365  c0.328,0.153,0.658,0.281,0.997,0.419c0.26,0.121,0.524,0.223,0.794,0.333c0.302,0.139,0.605,0.261,0.899,0.386  c0.339,0.148,0.668,0.285,1.007,0.422c0.265,0.125,0.533,0.225,0.801,0.338c0.296,0.134,0.587,0.25,0.891,0.378  c0.329,0.153,0.658,0.281,0.996,0.424c0.278,0.125,0.563,0.23,0.841,0.354c0.282,0.127,0.568,0.24,0.854,0.36  c0.312,0.137,0.615,0.264,0.926,0.391c0.322,0.147,0.643,0.273,0.964,0.409c0.274,0.127,0.552,0.233,0.827,0.35  c0.312,0.142,0.633,0.265,0.945,0.399c0.292,0.134,0.596,0.25,0.889,0.375c0.286,0.127,0.571,0.24,0.855,0.36  c0.338,0.152,0.679,0.285,1.017,0.427c0.258,0.121,0.525,0.22,0.782,0.334c0.303,0.136,0.598,0.25,0.9,0.38  c0.321,0.147,0.634,0.27,0.954,0.406c0.303,0.137,0.606,0.252,0.9,0.378c0.282,0.127,0.56,0.235,0.846,0.355  c0.321,0.147,0.632,0.272,0.953,0.404c0.303,0.138,0.604,0.255,0.897,0.38c0.286,0.129,0.563,0.234,0.847,0.356  c0.312,0.143,0.633,0.265,0.944,0.401c0.312,0.141,0.615,0.257,0.928,0.392c0.276,0.123,0.552,0.226,0.827,0.347  c0.321,0.147,0.633,0.272,0.954,0.404c0.32,0.146,0.633,0.268,0.944,0.402c0.269,0.12,0.534,0.217,0.802,0.329  c0.303,0.139,0.598,0.253,0.89,0.385c0.339,0.149,0.668,0.278,0.999,0.422c0.284,0.124,0.561,0.232,0.837,0.352  c0.313,0.139,0.624,0.259,0.925,0.386c0.312,0.146,0.615,0.26,0.919,0.39c0.276,0.124,0.554,0.229,0.827,0.347  c0.305,0.139,0.599,0.253,0.893,0.38c0.33,0.149,0.659,0.278,0.988,0.417c0.286,0.13,0.561,0.241,0.847,0.361  c0.312,0.138,0.614,0.259,0.927,0.386c0.295,0.14,0.595,0.255,0.898,0.386c0.294,0.133,0.598,0.247,0.892,0.374  c0.312,0.141,0.614,0.263,0.927,0.391c0.274,0.124,0.561,0.235,0.837,0.353c0.312,0.144,0.624,0.263,0.927,0.396  c0.301,0.133,0.604,0.255,0.908,0.381c0.311,0.142,0.624,0.265,0.935,0.398c0.286,0.125,0.561,0.23,0.847,0.354  c0.303,0.137,0.606,0.253,0.908,0.383c0.305,0.136,0.607,0.259,0.899,0.387c0.312,0.139,0.624,0.258,0.927,0.386  c0.304,0.142,0.615,0.255,0.918,0.386c0.266,0.124,0.543,0.23,0.819,0.346c0.321,0.147,0.642,0.277,0.962,0.41  c0.285,0.128,0.568,0.24,0.854,0.362c0.313,0.142,0.624,0.262,0.936,0.395c0.304,0.139,0.606,0.255,0.908,0.382  c0.285,0.133,0.571,0.242,0.856,0.362c0.312,0.143,0.624,0.262,0.925,0.395c0.312,0.14,0.615,0.257,0.918,0.386  c0.304,0.136,0.598,0.255,0.9,0.378c0.283,0.13,0.569,0.236,0.846,0.356c0.321,0.146,0.642,0.271,0.954,0.405  c0.285,0.13,0.561,0.235,0.846,0.356c0.32,0.147,0.632,0.27,0.953,0.406c0.304,0.137,0.605,0.253,0.9,0.378  c0.283,0.127,0.561,0.236,0.846,0.356c0.32,0.146,0.633,0.271,0.953,0.403c0.303,0.141,0.604,0.255,0.898,0.38  c0.286,0.13,0.562,0.235,0.846,0.355c0.321,0.147,0.633,0.272,0.954,0.407c0.303,0.137,0.605,0.253,0.9,0.378  c0.285,0.129,0.561,0.236,0.846,0.355c0.32,0.147,0.642,0.272,0.962,0.408c0.295,0.132,0.58,0.242,0.864,0.363  c0.302,0.138,0.597,0.257,0.899,0.385c0.312,0.141,0.624,0.26,0.927,0.391c0.294,0.132,0.587,0.244,0.881,0.369  c0.304,0.138,0.606,0.259,0.91,0.386c0.302,0.139,0.615,0.255,0.915,0.385c0.295,0.134,0.58,0.244,0.875,0.369  c0.294,0.134,0.598,0.248,0.889,0.38c0.313,0.137,0.616,0.258,0.928,0.387c0.304,0.141,0.615,0.26,0.918,0.392  c0.277,0.124,0.552,0.228,0.829,0.347c0.312,0.139,0.622,0.264,0.927,0.393c0.312,0.144,0.623,0.262,0.926,0.392  c0.294,0.134,0.587,0.245,0.882,0.371c0.303,0.141,0.615,0.262,0.927,0.391c0.284,0.129,0.569,0.242,0.855,0.36  c0.328,0.147,0.649,0.276,0.979,0.416c0.287,0.134,0.58,0.239,0.864,0.363c0.285,0.126,0.562,0.235,0.847,0.357  c0.302,0.138,0.605,0.258,0.908,0.384c0.303,0.14,0.606,0.257,0.909,0.388c0.312,0.137,0.614,0.258,0.917,0.386  c0.311,0.143,0.623,0.263,0.936,0.393c0.293,0.134,0.588,0.249,0.882,0.374c0.284,0.129,0.569,0.234,0.846,0.358  c0.32,0.145,0.643,0.269,0.953,0.403c0.286,0.128,0.569,0.242,0.855,0.361c0.312,0.142,0.624,0.263,0.936,0.395  c0.303,0.142,0.605,0.256,0.907,0.385c0.286,0.129,0.562,0.234,0.848,0.356c0.321,0.146,0.633,0.271,0.954,0.405  c0.301,0.132,0.595,0.253,0.897,0.378c0.286,0.128,0.562,0.237,0.847,0.355c0.319,0.146,0.632,0.272,0.952,0.405  c0.305,0.141,0.607,0.255,0.901,0.38c0.285,0.129,0.56,0.234,0.847,0.355c0.319,0.147,0.632,0.271,0.952,0.406  c0.303,0.137,0.606,0.254,0.901,0.377c0.283,0.131,0.56,0.238,0.845,0.356c0.321,0.147,0.633,0.272,0.954,0.404  c0.303,0.142,0.604,0.256,0.897,0.38c0.286,0.13,0.562,0.235,0.847,0.356c0.055,0.029,0.115,0.051,0.17,0.072  c67.566-54.622,110.803-138.135,110.803-231.783C724.41,287.601,723.921,278.291,723.063,269.091z M394.898,336.683l-0.018-85.907  l82.61,43.094L394.898,336.683z" fill="#711513" opacity="0.2"/><g><path clip-rule="evenodd" d="M376.734,241.752   l91.742,61.259l12.861-6.681L376.734,241.752z" fill="#FFFFFF" fill-rule="evenodd" id="The_Sharpness_9_" opacity="0.12"/><g id="Lozenge_18_"><g><path d="M576.268,235.891c0,0-2.993-21.066-12.16-30.349c-11.626-12.176-24.656-12.24-30.633-12.952     c-42.784-3.09-106.965-3.09-106.965-3.09h-0.133c0,0-64.169,0-106.954,3.09c-5.977,0.712-19.01,0.775-30.635,12.952     c-9.164,9.283-12.149,30.349-12.149,30.349s-3.064,24.736-3.064,49.482v23.196c0,24.743,3.064,49.481,3.064,49.481     s2.985,21.067,12.149,30.35c11.625,12.174,26.903,11.792,33.708,13.066c24.459,2.342,103.952,3.072,103.952,3.072     s64.242-0.099,107.026-3.187c5.977-0.714,19.007-0.778,30.633-12.952c9.167-9.282,12.16-30.35,12.16-30.35     s3.044-24.738,3.044-49.481v-23.196C579.312,260.627,576.268,235.891,576.268,235.891z M394.889,336.683l-0.018-85.907     l82.609,43.094L394.889,336.683z" fill="#FFFFFF"/></g></g></g></svg>