<svg width="729" height="751" viewBox="0 0 729 751" fill="none" xmlns="http://www.w3.org/2000/svg">
<g clip-path="url(#clip0)">
<rect x="36.45" y="37.55" width="656.1" height="675.9" rx="328.05" fill="#AE0BFF"/>
<mask id="mask0" mask-type="alpha" maskUnits="userSpaceOnUse" x="36" y="37" width="657" height="677">
<rect x="36.45" y="37.55" width="656.1" height="675.9" rx="328.05" fill="white"/>
</mask>
<g mask="url(#mask0)">
<path fill-rule="evenodd" clip-rule="evenodd" d="M603.181 635.037C583.841 606.215 555.328 585.266 522.577 575.815L446.512 553.863V497.54C478.668 472.656 499.785 433.497 501.083 389.201C505.577 391.242 510.538 392.398 515.769 392.398C535.898 392.398 552.219 375.587 552.219 354.848C552.219 334.109 535.898 317.298 515.769 317.298C510.58 317.298 505.656 318.43 501.189 320.443V309.788C501.189 232.018 439.991 168.976 364.501 168.976H364.499C289.01 168.976 227.814 232.018 227.814 309.788V320.443C223.345 318.43 218.42 317.298 213.234 317.298C193.102 317.298 176.784 334.109 176.784 354.848C176.784 375.587 193.102 392.398 213.234 392.398C218.462 392.398 223.423 391.243 227.919 389.201C229.215 433.497 250.332 472.656 282.487 497.54V553.863L206.423 575.815C173.673 585.266 145.16 606.215 125.819 635.037L72.9011 713.901V769.776H656.101V713.901L603.181 635.037Z" fill="#F5CDD3"/>
<path fill-rule="evenodd" clip-rule="evenodd" d="M364.5 525.7C347.645 525.7 331.512 522.538 316.604 516.791C337.807 530.745 362.987 538.842 390.015 538.842C410.171 538.842 429.288 534.312 446.512 526.244V497.539C423.667 515.218 395.272 525.7 364.5 525.7Z" fill="#F48C9D"/>
<path d="M232.568 360.328C233.033 358.583 233.282 356.745 233.282 354.849C233.282 343.443 224.306 334.197 213.235 334.197C210.466 334.197 207.829 334.775 205.431 335.819" stroke="#00004D" stroke-linecap="round" stroke-linejoin="round"/>
<path d="M496.434 360.328C495.97 358.583 495.722 356.745 495.722 354.849C495.722 343.443 504.697 334.197 515.769 334.197C518.536 334.197 521.173 334.775 523.573 335.819" stroke="#00004D" stroke-linecap="round" stroke-linejoin="round"/>
<path fill-rule="evenodd" clip-rule="evenodd" d="M400.95 439.352C400.95 460.091 384.631 476.902 364.5 476.902C344.368 476.902 328.05 460.091 328.05 439.352H400.95Z" fill="white"/>
<path fill-rule="evenodd" clip-rule="evenodd" d="M439.223 360.48C439.223 368.775 432.695 375.5 424.643 375.5C416.592 375.5 410.063 368.775 410.063 360.48C410.063 352.185 416.592 345.46 424.643 345.46C432.695 345.46 439.223 352.185 439.223 360.48" fill="#00004D"/>
<path fill-rule="evenodd" clip-rule="evenodd" d="M318.937 360.48C318.937 368.775 312.409 375.5 304.357 375.5C296.306 375.5 289.777 368.775 289.777 360.48C289.777 352.185 296.306 345.46 304.357 345.46C312.409 345.46 318.937 352.185 318.937 360.48" fill="#00004D"/>
<path d="M364.5 345.46L382.725 409.295L357.21 413.05" stroke="#00004D" stroke-linecap="round" stroke-linejoin="round"/>
<path fill-rule="evenodd" clip-rule="evenodd" d="M490.553 327.772C495.857 322.53 502.689 318.948 510.3 317.765V309.787V243.553C510.3 215.105 494.698 189.101 470.003 176.38L380.801 130.435C370.538 125.148 358.46 125.148 348.2 130.435L258.997 176.38C234.303 189.101 218.7 215.105 218.7 243.553V317.765C226.311 318.948 233.144 322.53 238.447 327.772V326.957C238.447 308.345 246.501 290.701 260.415 278.829C279.379 262.647 305.956 259.879 327.678 271.824C350.689 284.477 378.311 284.477 401.322 271.824C423.044 259.879 449.622 262.647 468.585 278.829C482.5 290.701 490.553 308.345 490.553 326.957V327.772Z" fill="#FFCA00"/>
<path fill-rule="evenodd" clip-rule="evenodd" d="M656.1 713.901L603.18 635.036C583.842 606.217 555.328 585.266 522.576 575.814L518.547 574.65L502.246 542.057C498.233 534.03 491.548 527.763 483.414 524.403L446.512 509.152V554.313C446.507 554.324 446.505 554.332 446.5 554.343L364.967 638.339C364.81 638.339 364.657 638.35 364.5 638.35L282.488 553.863V508.682L245.586 523.935C237.452 527.296 230.767 533.563 226.754 541.587L210.18 574.729L206.422 575.814C173.672 585.266 145.158 606.217 125.818 635.036L72.9 713.901L72.9 769.775H656.1V713.901Z" fill="#80C43B"/>
<path d="M210.18 574.729L364.5 666.744L476.203 600.479" stroke="#00004D" stroke-linecap="round" stroke-linejoin="round"/>
<path fill-rule="evenodd" clip-rule="evenodd" d="M322.582 741.843V741.843C319.563 741.843 317.115 739.32 317.115 736.211V638.633L328.05 645.009V736.211C328.05 739.32 325.602 741.843 322.582 741.843" fill="#00004D"/>
<path fill-rule="evenodd" clip-rule="evenodd" d="M406.417 702.416V702.416C403.398 702.416 400.95 699.892 400.95 696.783V645.12L411.885 638.633V696.783C411.885 699.892 409.437 702.416 406.417 702.416" fill="#00004D"/>
<path d="M267.907 538.842L282.487 553.862" stroke="#00004D" stroke-linecap="round" stroke-linejoin="round"/>
<path fill-rule="evenodd" clip-rule="evenodd" d="M452.034 322.93H397.359C389.371 322.93 382.6 328.232 380.14 335.599C377.805 332.468 374.149 330.44 370.021 330.44H358.122C353.996 330.44 350.337 332.468 348.006 335.599C345.542 328.232 338.773 322.93 330.785 322.93H276.11C266.044 322.93 257.885 331.337 257.885 341.705V354.847C257.885 380.772 278.284 401.785 303.447 401.785C328.611 401.785 349.01 380.772 349.01 354.847C349.01 347.589 354.721 341.705 361.767 341.705H366.376C373.422 341.705 379.134 347.589 379.134 354.847C379.134 380.772 399.531 401.785 424.696 401.785C449.86 401.785 470.259 380.772 470.259 354.847V341.705C470.259 331.337 462.098 322.93 452.034 322.93" fill="#000066"/>
</g>
</g>
<defs>
<clipPath id="clip0">
<path d="M0 0L729 0V751H0L0 0Z" fill="white"/>
</clipPath>
</defs>
</svg>
